<?xml version="1.0" standalone="no"?>
<!DOCTYPE svg PUBLIC "-//W3C//DTD SVG 20010904//EN"
 "http://www.w3.org/TR/2001/REC-SVG-20010904/DTD/svg10.dtd">
<svg version="1.0" xmlns="http://www.w3.org/2000/svg"
 width="700.000000pt" height="700.000000pt" viewBox="0 0 700.000000 700.000000"
 preserveAspectRatio="xMidYMid meet">
<metadata>
Created by potrace 1.14, written by Peter Selinger 2001-2017
</metadata>
<g transform="translate(0.000000,700.000000) scale(0.100000,-0.100000)"
fill="#000000" stroke="none">
<path d="M3289 6286 c-2 -2 -38 -6 -79 -10 -41 -3 -86 -8 -100 -11 -13 -3 -42
-7 -65 -10 -250 -36 -608 -158 -863 -295 -153 -82 -383 -235 -452 -301 -8 -8
-46 -41 -84 -73 -150 -131 -312 -314 -453 -513 -78 -110 -210 -354 -268 -494
-55 -133 -127 -354 -141 -433 -3 -16 -6 -32 -8 -35 -2 -3 -7 -22 -10 -41 -3
-19 -8 -48 -11 -65 -35 -193 -40 -252 -40 -505 0 -260 6 -328 50 -564 49 -257
174 -587 314 -824 17 -29 31 -55 31 -57 0 -2 25 -42 56 -87 287 -422 649 -745
1073 -957 308 -155 655 -258 971 -289 152 -14 607 -6 680 13 8 2 33 6 55 10
73 11 99 16 190 37 50 12 92 22 95 23 21 4 139 42 205 65 516 180 987 531
1318 983 119 162 253 400 330 587 56 136 130 380 151 495 46 247 51 306 51
565 0 193 -6 309 -21 396 -50 300 -120 540 -220 752 -19 41 -34 75 -34 77 0 5
-102 190 -124 225 -303 475 -660 805 -1131 1043 -172 87 -422 181 -560 212
-125 28 -270 56 -310 60 -27 4 -63 9 -80 11 -36 6 -510 15 -516 10z m608 -562
c37 -26 70 -50 73 -53 3 -3 32 -28 65 -55 155 -127 414 -415 430 -479 11 -42
-3 -91 -34 -122 -28 -29 -68 -43 -391 -139 -225 -67 -305 -63 -362 16 l-23 33
0 375 c0 356 1 376 20 404 27 40 73 66 117 66 27 0 54 -12 105 -46z m-630 16
c66 -40 67 -45 67 -445 1 -352 0 -361 -21 -395 -61 -99 -135 -95 -532 29 -90
28 -177 59 -192 68 -53 31 -74 110 -44 166 64 124 450 504 588 580 42 22 94
22 134 -3z m-992 -246 c33 -69 23 -119 -43 -215 -81 -118 -135 -129 -272 -60
-95 48 -109 58 -114 88 -6 30 32 68 174 174 92 68 96 71 134 79 42 9 100 -23
121 -66z m2701 -9 c174 -129 202 -164 165 -209 -23 -28 -186 -101 -221 -99
-77 4 -102 23 -169 126 -33 50 -41 71 -41 109 0 80 32 130 95 147 40 11 77 -5
171 -74z m-3166 -548 c100 -54 135 -105 125 -184 -7 -50 -77 -181 -200 -373
-140 -221 -151 -237 -187 -312 -52 -107 -80 -197 -92 -287 -7 -53 -31 -97 -69
-125 -25 -18 -45 -21 -159 -24 -150 -4 -171 -1 -185 30 -28 62 45 442 132 685
70 197 265 550 367 664 43 48 44 48 268 -74z m3652 69 c25 -29 161 -232 188
-281 162 -290 277 -642 305 -930 4 -33 8 -74 10 -92 2 -21 -3 -38 -17 -52 -19
-21 -21 -22 -518 -19 -489 3 -499 3 -527 24 -44 33 -66 79 -67 142 -3 106 34
220 139 432 55 110 102 222 111 265 11 52 10 135 -2 180 -41 150 -22 194 116
268 205 109 200 107 223 95 12 -6 29 -20 39 -32z m-3023 -311 c31 -9 119 -36
196 -60 160 -50 275 -82 324 -90 19 -3 37 -7 40 -9 3 -2 29 -7 56 -10 171 -23
187 -27 221 -52 19 -15 34 -28 34 -29 0 -1 7 -19 15 -39 15 -35 15 -37 -34
-128 -26 -51 -60 -113 -73 -138 -104 -188 -198 -372 -207 -407 -16 -57 -60
-100 -114 -108 -23 -3 -262 -4 -530 -1 -464 5 -490 6 -521 25 -44 28 -74 85
-70 139 6 100 77 253 193 422 150 216 206 302 247 378 62 116 110 139 223 107z
m2246 5 c89 -34 123 -149 83 -280 -12 -39 -60 -138 -107 -220 -114 -199 -140
-271 -145 -396 -3 -85 -25 -129 -77 -156 -33 -17 -72 -19 -504 -24 -318 -3
-477 -1 -499 6 -43 14 -82 56 -93 100 -9 33 -2 49 109 255 183 339 208 388
208 412 0 13 17 40 39 62 32 32 49 41 88 46 109 14 248 37 296 51 185 50 246
67 361 103 70 22 130 42 132 44 9 8 84 7 109 -3z m-3305 -1410 c50 -25 59 -42
91 -170 40 -157 68 -210 304 -561 83 -125 143 -242 148 -289 5 -40 -8 -86 -32
-114 -19 -22 -64 -51 -151 -97 -36 -18 -80 -44 -99 -56 -52 -35 -84 -30 -124
20 -104 127 -236 365 -317 567 -57 144 -118 358 -136 479 -3 20 -7 43 -9 51
-2 8 -7 45 -10 82 -6 59 -4 69 14 87 19 19 33 21 151 21 111 0 137 -3 170 -20z
m1541 1 c41 -15 77 -57 90 -104 6 -23 33 -78 59 -122 26 -44 57 -96 68 -115
10 -19 59 -100 107 -180 48 -80 87 -154 87 -166 1 -39 -32 -90 -70 -111 -36
-20 -72 -27 -197 -38 -57 -5 -231 -29 -285 -40 -62 -12 -137 -27 -160 -31 -14
-3 -75 -18 -136 -35 -176 -46 -214 -34 -280 91 -35 68 -92 150 -205 300 -152
203 -211 319 -213 422 -1 66 20 102 75 131 32 17 68 17 534 13 298 -3 511 -9
526 -15z m1516 0 c50 -31 66 -64 73 -154 4 -46 15 -99 25 -120 22 -46 89 -134
154 -202 74 -78 128 -150 146 -199 41 -106 -23 -215 -128 -218 -17 0 -59 7
-92 15 -53 14 -97 21 -210 33 -16 2 -122 6 -235 9 -408 11 -430 14 -479 67
-12 12 -27 44 -36 72 -8 28 -25 67 -37 86 -97 151 -279 469 -280 488 -3 31 32
87 65 107 43 27 95 29 587 33 398 2 416 2 447 -17z m1503 -1 c18 -18 20 -30
16 -78 -10 -106 -35 -235 -76 -387 -57 -212 -189 -496 -320 -693 -85 -126
-109 -152 -146 -152 -28 0 -86 56 -110 105 -18 38 -55 79 -118 128 -50 40 -64
91 -46 165 33 141 10 207 -135 402 -143 191 -183 280 -172 385 6 62 31 100 80
127 29 16 79 17 520 18 477 0 487 0 507 -20z m-2694 -1156 c33 -11 46 -24 66
-62 l24 -47 -1 -340 c-1 -303 -3 -344 -18 -373 -32 -60 -106 -87 -170 -63 -42
16 -229 171 -343 285 -108 108 -213 230 -267 311 -51 76 -27 166 54 202 30 13
247 59 324 68 28 4 57 8 65 10 8 2 47 7 85 11 39 3 71 7 72 8 9 8 77 2 109
-10z m1210 -7 c74 -32 107 -106 79 -174 -13 -30 -69 -109 -121 -170 -11 -12
-44 -51 -74 -87 -65 -77 -260 -271 -346 -344 -145 -122 -203 -144 -271 -102
-69 42 -68 36 -69 425 -2 399 0 408 68 449 l40 24 327 -2 c288 -1 331 -3 367
-19z m592 -213 c73 -30 114 -87 127 -178 7 -43 5 -48 -27 -79 -90 -87 -269
-217 -299 -217 -48 0 -99 84 -99 165 0 63 17 109 70 187 72 105 75 109 117
123 50 18 66 18 111 -1z m-2892 -95 c47 -43 124 -167 133 -212 21 -113 -80
-204 -173 -155 -29 15 -150 104 -200 147 -77 68 -96 90 -96 110 0 28 24 47
123 99 72 38 88 42 135 39 38 -3 59 -10 78 -28z"/>
</g>
</svg>
