<?xml version="1.0" standalone="no"?>
<!DOCTYPE svg PUBLIC "-//W3C//DTD SVG 20010904//EN"
 "http://www.w3.org/TR/2001/REC-SVG-20010904/DTD/svg10.dtd">
<svg version="1.0" xmlns="http://www.w3.org/2000/svg"
 width="700.000000pt" height="700.000000pt" viewBox="0 0 700.000000 700.000000"
 preserveAspectRatio="xMidYMid meet">
<metadata>
Created by potrace 1.14, written by Peter Selinger 2001-2017
</metadata>
<g transform="translate(0.000000,700.000000) scale(0.100000,-0.100000)"
fill="#000000" stroke="none">
<path d="M2658 5902 c-3 -106 -6 -122 -27 -154 -42 -60 -59 -63 -366 -63
l-275 0 0 -96 c0 -122 -6 -151 -39 -188 -38 -43 -69 -51 -192 -51 l-109 0 0
-113 c0 -90 -4 -119 -19 -147 -26 -49 -91 -81 -161 -80 -30 1 -78 1 -105 1
l-50 -1 0 -289 c0 -159 -3 -287 -7 -285 -5 3 -8 -1 -8 -9 0 -18 -49 -63 -83
-76 -16 -6 -75 -11 -133 -11 l-104 0 0 -840 0 -840 105 0 c120 0 161 -12 196
-59 12 -16 25 -29 28 -27 3 2 6 -128 6 -290 l0 -294 30 0 c174 -2 223 -5 219
-12 -3 -4 -2 -8 3 -8 16 0 62 -47 73 -74 5 -15 10 -77 10 -137 l0 -109 116 0
c67 0 124 -5 137 -11 60 -33 85 -86 86 -184 0 -38 0 -86 0 -105 l1 -35 285 0
c157 0 285 -3 285 -6 0 -4 10 -9 23 -13 12 -3 33 -22 47 -42 23 -34 25 -49 28
-156 l4 -118 839 0 839 0 0 111 c0 62 5 120 11 132 17 33 61 77 76 77 8 0 12
3 9 8 -2 4 124 7 281 7 157 0 286 3 288 6 2 3 5 60 7 126 1 67 5 120 9 118 3
-2 13 9 23 25 27 46 52 54 181 60 l120 5 2 105 c3 123 6 139 30 166 43 49 72
59 192 64 l116 5 0 275 c0 305 3 319 64 361 31 21 47 24 153 27 l118 4 0 838
0 838 -119 4 c-129 3 -150 11 -195 72 -20 26 -21 40 -21 312 0 182 -4 284 -10
284 -5 0 -59 2 -120 3 -99 2 -113 4 -142 26 -52 39 -63 75 -63 200 l0 111
-115 0 c-92 0 -121 4 -143 17 -70 44 -82 76 -82 218 l0 100 -284 0 c-273 0
-286 1 -313 21 -62 46 -73 76 -73 200 l0 114 -839 0 -839 0 -4 -118z m344
-225 c-5 -7 -8 -64 -8 -129 1 -64 -1 -115 -4 -113 -3 2 -14 -9 -25 -25 -34
-51 -62 -60 -189 -60 l-116 0 0 -111 c0 -94 -3 -117 -21 -149 -41 -72 -54 -75
-319 -75 -231 0 -236 0 -265 23 -49 39 -65 71 -65 133 0 81 15 114 67 148 l44
30 172 0 c95 0 220 0 280 1 l107 0 0 104 c0 58 5 117 11 133 13 34 58 83 76
83 8 0 12 3 10 8 -3 4 50 7 118 6 78 0 122 3 118 9 -3 6 -1 7 6 3 7 -5 9 -12
3 -19z m1004 14 c-3 -4 45 -8 106 -7 93 1 116 -2 146 -19 67 -38 77 -62 80
-196 l4 -119 41 -1 c23 0 143 0 267 0 124 1 239 -3 257 -8 38 -11 79 -49 93
-86 6 -15 10 -51 10 -82 0 -70 -26 -114 -83 -142 -39 -19 -60 -20 -257 -20
-199 1 -218 2 -252 22 -60 33 -78 82 -78 211 l0 107 -119 -3 c-66 -2 -117 0
-115 3 2 4 -9 12 -24 18 -15 6 -38 28 -52 48 -22 33 -25 46 -25 142 -1 59 -4
112 -8 117 -3 6 -4 14 0 18 9 9 15 7 9 -3z m-676 -678 l0 -338 -278 1 c-257 0
-281 2 -312 20 -54 31 -74 66 -78 137 -4 70 15 117 62 152 23 17 47 21 149 25
l122 5 0 117 c0 64 2 115 4 112 2 -2 11 11 20 29 28 56 77 74 202 76 l109 2 0
-338z m596 313 c63 -35 77 -71 78 -200 l1 -111 120 -5 c103 -4 124 -8 151 -27
87 -62 85 -220 -3 -279 -18 -12 -31 -23 -28 -25 2 -2 -127 -4 -286 -4 l-289 0
0 338 0 338 109 -2 c91 -1 115 -5 147 -23z m-2023 -327 c60 -33 85 -86 86
-184 0 -38 0 -86 0 -105 l1 -35 158 0 c86 0 162 3 167 7 13 8 11 -219 -3 -252
-13 -32 -49 -66 -85 -79 -16 -6 -75 -11 -133 -11 l-104 0 -1 -37 c0 -21 0
-172 0 -335 l1 -298 -337 0 -338 0 0 289 c0 159 2 288 4 286 2 -3 13 10 25 28
36 53 76 67 199 67 l107 0 0 118 c0 64 1 187 1 272 0 176 10 212 68 255 29 20
46 25 99 25 35 0 73 -5 85 -11z m3352 1 c79 -30 94 -76 94 -286 0 -93 0 -215
1 -271 l0 -103 108 0 c125 0 162 -13 202 -73 l25 -37 -1 -278 c-1 -152 -2
-279 -3 -282 0 -3 -152 -4 -336 -2 l-335 3 0 334 0 335 -105 0 c-123 0 -160
12 -200 64 -27 35 -28 41 -29 160 -1 78 3 122 9 118 12 -8 316 -9 320 -1 2 3
5 53 6 111 2 118 18 161 75 198 32 22 124 27 169 10z m-1925 -995 l0 -335
-503 0 -503 0 0 289 c1 159 4 287 8 285 5 -3 8 1 8 9 0 17 48 63 80 76 15 6
199 10 468 10 l442 1 0 -335z m1247 324 c36 -13 72 -47 86 -79 14 -34 16 -580
2 -580 -5 0 -232 -1 -503 -3 l-492 -2 0 338 0 337 439 0 c287 0 449 -4 468
-11z m-2587 -1312 c-1 -172 -1 -322 -1 -334 1 -20 6 -21 120 -25 135 -3 160
-14 196 -83 17 -31 20 -56 20 -144 l-1 -106 -167 0 -167 1 -1 -51 c0 -27 0
-75 1 -105 1 -70 -31 -135 -80 -161 -76 -41 -192 -17 -237 49 -19 29 -23 93
-23 445 l0 157 -105 0 c-123 0 -160 12 -200 65 l-29 37 0 284 -1 284 330 2
c182 2 333 2 338 0 4 -2 7 -144 7 -315z m1340 -22 l0 -336 -454 3 c-441 3
-455 4 -482 24 -15 11 -37 33 -48 48 -20 26 -21 41 -21 312 l-1 284 503 0 503
0 0 -335z m1345 52 l0 -284 -29 -38 c-50 -65 -46 -65 -536 -65 l-440 0 0 335
0 335 503 0 502 0 0 -283z m1010 -6 c0 -159 -2 -288 -4 -286 -2 3 -13 -10 -25
-28 -36 -53 -76 -67 -198 -67 -96 0 -108 -2 -108 -17 -1 -10 -1 -133 -1 -274
1 -247 0 -258 -22 -299 -13 -25 -37 -51 -57 -61 -45 -25 -140 -25 -178 -2 -70
44 -82 76 -82 218 l0 101 -161 -1 c-88 0 -163 2 -167 5 -9 7 -9 239 1 233 4
-2 7 2 7 10 0 18 49 63 83 76 16 6 75 11 133 11 l104 0 0 335 0 335 338 0 337
0 0 -289z m-2362 -720 c4 -1 7 -152 7 -336 l0 -335 -106 1 c-118 1 -161 13
-193 56 -11 16 -24 33 -28 38 -5 6 -8 62 -8 125 l0 115 -122 5 c-102 4 -126 8
-149 25 -87 66 -85 222 3 281 18 12 31 23 28 25 -3 3 544 3 568 0z m937 -17
c58 -34 75 -66 75 -147 0 -59 -4 -78 -23 -105 -37 -51 -65 -60 -193 -64 l-114
-3 0 -115 c0 -63 -2 -117 -5 -120 -3 -3 -13 -17 -22 -31 -33 -52 -74 -66 -196
-68 l-112 -2 0 338 0 338 279 -1 c256 -1 281 -2 311 -20z m-1683 -335 c64 -31
83 -79 83 -211 l0 -106 125 -4 126 -3 42 -45 42 -45 1 -129 c1 -71 -1 -124 -5
-119 -3 6 -52 9 -109 9 -87 -1 -110 2 -139 19 -68 38 -78 62 -81 196 -3 103
-6 119 -20 119 -10 0 -139 1 -287 3 -266 2 -271 2 -300 25 -51 40 -65 71 -65
140 0 67 10 95 44 126 46 41 73 45 291 45 189 0 214 -2 252 -20z m2347 10 c-3
-5 -2 -9 3 -9 16 0 62 -47 73 -74 15 -42 12 -134 -6 -165 -9 -15 -32 -38 -52
-51 -38 -27 -19 -26 -569 -30 l-33 0 0 -105 c0 -119 -12 -160 -56 -193 -16
-12 -33 -25 -39 -29 -5 -5 -62 -8 -126 -8 l-115 -1 1 122 c1 113 3 124 26 152
40 51 74 62 198 62 l111 0 0 105 c0 67 5 118 14 138 17 40 61 84 89 90 43 8
486 4 481 -4z"/>
</g>
</svg>
